<?xml version="1.0" encoding="UTF-8"?>
<svg version="1.1" xmlns="http://www.w3.org/2000/svg" width="512" height="512">
<path d="M0 0 C13.08239586 -0.04632461 26.16477224 -0.0818699 39.24723339 -0.10362434 C45.32183414 -0.11406496 51.3963788 -0.12822936 57.47094727 -0.15087891 C63.33238082 -0.17259719 69.19376041 -0.18456653 75.05523109 -0.18975449 C77.29234988 -0.19345205 79.52946568 -0.20067237 81.76656151 -0.21146011 C84.89806903 -0.22596138 88.02935302 -0.22797849 91.16088867 -0.22705078 C92.08733688 -0.23424133 93.0137851 -0.24143188 93.9683075 -0.24884033 C98.42483401 -0.23453846 101.95298905 -0.11642631 106 2 C106 2.66 106 3.32 106 4 C106.763125 4.144375 107.52625 4.28875 108.3125 4.4375 C111 5 111 5 114 6 C114 6.66 114 7.32 114 8 C117.3 8.99 120.6 9.98 124 11 C124 11.66 124 12.32 124 13 C125.65 13.33 127.3 13.66 129 14 C129.33 14.99 129.66 15.98 130 17 C131.98 17 133.96 17 136 17 C136.66 14.03 137.32 11.06 138 8 C138.66 8 139.32 8 140 8 C140 6.68 140 5.36 140 4 C145.94 4.99 145.94 4.99 152 6 C152 6.66 152 7.32 152 8 C152.969375 7.97164063 153.93875 7.94328125 154.9375 7.9140625 C159.380339 7.91629733 163.63270289 8.61292131 168 9.375 C169.15242188 9.56449219 169.15242188 9.56449219 170.328125 9.7578125 C173.85890842 10.35828587 177.21388047 11.06208697 180.66015625 12.0625 C183.98231539 12.9950359 187.00146676 13.39335731 190.4375 13.625 C192.01337891 13.73714844 192.01337891 13.73714844 193.62109375 13.8515625 C194.40613281 13.90054688 195.19117188 13.94953125 196 14 C196.433125 15.2065625 196.433125 15.2065625 196.875 16.4375 C197.73262568 19.1326468 197.73262568 19.1326468 200 20 C200.625 23.0625 200.625 23.0625 201 26 C200.01 26 199.02 26 198 26 C198 27.98 198 29.96 198 32 C198.66 32 199.32 32 200 32 C203 37.625 203 37.625 203 41 C203.99 41.33 204.98 41.66 206 42 C207.1875 45.5625 207.1875 45.5625 208 49 C208.66 49 209.32 49 210 49 C210.66 51.31 211.32 53.62 212 56 C212.66 56 213.32 56 214 56 C214.33 57.65 214.66 59.3 215 61 C210.74154806 62.04010961 206.6184509 62.13795635 202.26152039 62.12025452 C201.48954042 62.12110894 200.71756045 62.12196337 199.92218715 62.12284368 C197.33962122 62.12448867 194.75712048 62.11899317 192.17456055 62.11352539 C190.32162986 62.11324328 188.46869906 62.11340172 186.61576843 62.1139679 C181.58728948 62.11425494 176.55883435 62.10837312 171.53036094 62.10139394 C166.27462112 62.09514503 161.01888077 62.09455538 155.76313782 62.09336853 C145.81141225 62.09025976 135.85969766 62.08205246 125.90797693 62.07201904 C114.5779692 62.06084384 103.24796095 62.0553439 91.91794908 62.05032361 C68.61195997 62.03986949 45.3059806 62.02227881 22 62 C22 62.66 22 63.32 22 64 C21.01 64.66 20.02 65.32 19 66 C19.33 67.98 19.66 69.96 20 72 C86.99 72.33 153.98 72.66 223 73 C223.99 75.64 224.98 78.28 226 81 C226.99 81.66 227.98 82.32 229 83 C229 83.66 229 84.32 229 85 C212.17 85 195.34 85 178 85 C178 85.66 178 86.32 178 87 C177.01 87.33 176.02 87.66 175 88 C173.66695302 90.89186786 173.66695302 90.89186786 174.9375 93.1875 C175.288125 93.785625 175.63875 94.38375 176 95 C176.71552536 94.98889694 177.43105072 94.97779388 178.16825867 94.96635437 C184.92129018 94.86604475 191.67411292 94.78998117 198.42772198 94.74093914 C201.89964849 94.71487773 205.37095792 94.67954613 208.8425293 94.62280273 C212.83648499 94.55793166 216.82979558 94.53379138 220.82421875 94.51171875 C222.06709152 94.48591232 223.30996429 94.4601059 224.59049988 94.43351746 C233.04923526 94.43076555 233.04923526 94.43076555 235.85076904 96.108078 C237.19116211 97.46240234 237.19116211 97.46240234 239 100 C240.32541614 100.68227141 241.65787539 101.35121362 243 102 C244.6328125 103.69140625 244.6328125 103.69140625 246.125 105.5625 C248.20903634 108.21025666 248.20903634 108.21025666 251 110 C251 110.66 251 111.32 251 112 C228.89 112 206.78 112 184 112 C182.5527864 118.40371521 182.5527864 118.40371521 184 122 C212.05 122 240.1 122 269 122 C269 121.34 269 120.68 269 120 C276.425 119.01 276.425 119.01 284 118 C284 124.6 284 131.2 284 138 C281.92549561 138.02505615 279.85099121 138.0501123 277.71362305 138.07592773 C270.86435265 138.1593529 264.01515778 138.24804511 257.16598797 138.33933926 C253.0127852 138.39453599 248.85957535 138.44795082 244.70629883 138.49731445 C240.6992001 138.54500591 236.69218686 138.59735049 232.6851902 138.65294075 C231.1553847 138.67334263 229.62555577 138.69205929 228.09570885 138.70907402 C225.95523988 138.73316605 223.81493207 138.76321392 221.67456055 138.79467773 C220.45544479 138.81022202 219.23632904 138.8257663 217.98027039 138.84178162 C214.94558057 138.87064557 214.94558057 138.87064557 212 140 C212 141.98 212 143.96 212 146 C214.66660057 147.33330029 216.74888743 147.16159459 219.73486328 147.20532227 C220.93595734 147.22526749 222.13705139 147.24521271 223.37454224 147.26576233 C224.67664642 147.28247482 225.97875061 147.29918732 227.3203125 147.31640625 C228.66267538 147.33697625 230.00503179 147.35797273 231.34738159 147.37937927 C234.88188438 147.43459531 238.41644557 147.48400658 241.9510498 147.53222656 C245.55726322 147.58244504 249.16339172 147.63812929 252.76953125 147.69335938 C259.84628049 147.80093517 266.92310584 147.90238142 274 148 C274 151 274 151 272.3203125 152.71875 C271.59585937 153.3065625 270.87140625 153.894375 270.125 154.5 C267.51805546 156.63040629 265.89331428 158.16002857 264 161 C263.01 161.309375 262.02 161.61875 261 161.9375 C257.93817854 162.65929737 257.93817854 162.65929737 256.9375 164.8125 C256.628125 165.534375 256.31875 166.25625 256 167 C253.33929635 170.28037175 251.88029351 171.83748995 247.66733837 172.61523914 C245.74954807 172.6083257 245.74954807 172.6083257 243.79301453 172.60127258 C242.72079917 172.60768077 242.72079917 172.60768077 241.62692291 172.61421841 C239.23721199 172.62243941 236.84926533 172.59498124 234.4597168 172.56762695 C232.74471579 172.56621628 231.02971177 172.56700885 229.31471252 172.56983948 C224.66199975 172.57127428 220.00993125 172.54187424 215.35736823 172.50696969 C210.49404144 172.47571683 205.63069993 172.47277629 200.76728821 172.46684265 C191.55916074 172.45130107 182.35133003 172.4102683 173.14333326 172.3600952 C162.65978277 172.30421158 152.17621813 172.2767177 141.69255579 172.25161803 C120.12820041 172.19935275 98.56412935 172.11039734 77 172 C77 165.73 77 159.46 77 153 C71.06 152.67 65.12 152.34 59 152 C58.67 151.01 58.34 150.02 58 149 C57.319375 148.505 56.63875 148.01 55.9375 147.5 C54.9784375 146.7575 54.9784375 146.7575 54 146 C54 145.01 54 144.02 54 143 C54.83249268 142.97494385 55.66498535 142.9498877 56.52270508 142.92407227 C59.61462833 142.82887306 62.70638852 142.72964328 65.7980957 142.62768555 C67.79303319 142.56312994 69.78811929 142.5032217 71.78320312 142.44335938 C73.66362305 142.38051758 73.66362305 142.38051758 75.58203125 142.31640625 C76.73936768 142.27974854 77.8967041 142.24309082 79.08911133 142.20532227 C82.0643446 142.11671491 82.0643446 142.11671491 85 141 C85 139.02 85 137.04 85 135 C82.04950242 134.15381654 79.40843169 133.86627742 76.34295654 133.84178162 C75.41190094 133.8319928 74.48084534 133.82220398 73.52157593 133.81211853 C72.50737579 133.80636307 71.49317566 133.8006076 70.44824219 133.79467773 C69.37476532 133.78477814 68.30128845 133.77487854 67.19528198 133.76467896 C63.64583545 133.73308278 60.09637553 133.70831384 56.546875 133.68359375 C54.0863612 133.66302261 51.62585092 133.64202609 49.16534424 133.62062073 C42.68809867 133.56541665 36.21082129 133.51599996 29.73352051 133.46777344 C23.12440153 133.41754632 16.51532876 133.36186656 9.90625 133.30664062 C-3.06246026 133.19907938 -16.03120998 133.0974447 -29 133 C-29 132.34 -29 131.68 -29 131 C-29.639375 130.731875 -30.27875 130.46375 -30.9375 130.1875 C-33 129 -33 129 -34 126 C-36.00016466 124.79117904 -36.00016466 124.79117904 -38 124 C-38 123.34 -38 122.68 -38 122 C-38.9590625 121.5978125 -38.9590625 121.5978125 -39.9375 121.1875 C-42 120 -42 120 -43 117 C-43.66 116.67 -44.32 116.34 -45 116 C-47 115 -47 115 -48 112 C-48.66 112 -49.32 112 -50 112 C-50 109.69 -50 107.38 -50 105 C-36.47 104.67 -22.94 104.34 -9 104 C-8.67 103.34 -8.34 102.68 -8 102 C-7.34 102 -6.68 102 -6 102 C-6 100.68 -6 99.36 -6 98 C-9.86323338 96.71225554 -13.57490537 96.76617207 -17.60546875 96.68359375 C-18.86427605 96.6524221 -18.86427605 96.6524221 -20.14851379 96.62062073 C-22.82809294 96.55525982 -25.50776969 96.49630286 -28.1875 96.4375 C-30.00456737 96.39430198 -31.82162488 96.35068727 -33.63867188 96.30664062 C-38.09234799 96.1995922 -42.54612226 96.09828681 -47 96 C-46.85790331 93.3122562 -46.7114277 90.62486698 -46.5625 87.9375 C-46.52318359 87.18533203 -46.48386719 86.43316406 -46.44335938 85.65820312 C-46.18419281 81.05301259 -45.7200579 76.55633276 -45 72 C-44.34 72 -43.68 72 -43 72 C-43 71.34 -43 70.68 -43 70 C-43.99 69.67 -44.98 69.34 -46 69 C-49.09279109 66.42267409 -50.77068146 64.76439513 -51.9375 60.875 C-52 58 -52 58 -50 55 C-49.34 55 -48.68 55 -48 55 C-47.87625 54.4225 -47.7525 53.845 -47.625 53.25 C-46.37555021 48.75198075 -44.39217095 46.18658483 -41 43 C-40.55271168 42.47183559 -40.10542336 41.94367119 -39.64458084 41.3995018 C-37.5152914 39.58752374 -36.39408335 39.63896284 -33.62420654 39.67047119 C-32.72988419 39.67331619 -31.83556183 39.67616119 -30.91413879 39.67909241 C-29.93539291 39.69765793 -28.95664703 39.71622345 -27.94824219 39.73535156 C-26.39900307 39.74691536 -26.39900307 39.74691536 -24.81846619 39.75871277 C-21.39428303 39.78805334 -17.97079057 39.83909614 -14.546875 39.890625 C-12.16897809 39.91612418 -9.791068 39.94042037 -7.41314697 39.96356201 C-2.42289809 40.01518888 2.56709454 40.07669996 7.55712891 40.14599609 C13.94708542 40.23461719 20.3370786 40.30619987 26.727314 40.37128067 C32.82349033 40.43416373 38.91955311 40.50593007 45.015625 40.578125 C46.17722389 40.59107857 47.33882278 40.60403214 48.53562164 40.61737823 C51.8340551 40.65570749 55.13233958 40.70038378 58.43066406 40.74707031 C59.40131302 40.75753891 60.37196198 40.76800751 61.37202454 40.77879333 C66.34592658 40.85636925 71.06930412 41.29310611 76 42 C79.32778425 41.39261878 79.32778425 41.39261878 82 40 C82.33 39.01 82.66 38.02 83 37 C83.66 37 84.32 37 85 37 C85 35.68 85 34.36 85 33 C84.34 33 83.68 33 83 33 C82.62875 31.865625 82.2575 30.73125 81.875 29.5625 C81.11400056 27.62609489 81.11400056 27.62609489 80 26 C76.48063699 24.80191898 73.44475479 24.50727292 70 26 C69.4962384 26.66739197 68.99247681 27.33478394 68.47344971 28.0223999 C64.71400901 31.02818986 61.22940762 30.52871188 56.54980469 30.45410156 C55.59337067 30.45468567 54.63693665 30.45526978 53.65151978 30.45587158 C50.49126856 30.45308563 47.33196138 30.42196885 44.171875 30.390625 C41.98041296 30.38316445 39.78894424 30.37747064 37.59747314 30.37347412 C31.8302162 30.35820329 26.06336235 30.31890856 20.29626465 30.2746582 C14.4111069 30.233737 8.52588401 30.21546981 2.640625 30.1953125 C-8.90642708 30.15241607 -20.45318002 30.08414687 -32 30 C-32 29.34 -32 28.68 -32 28 C-31.360625 27.731875 -30.72125 27.46375 -30.0625 27.1875 C-27.66868314 26.11332248 -27.66868314 26.11332248 -27 23 C-26.01 22.67 -25.02 22.34 -24 22 C-23.34 21.01 -22.68 20.02 -22 19 C-18.875 17.8125 -18.875 17.8125 -16 17 C-16 16.34 -16 15.68 -16 15 C-13.69 14.34 -11.38 13.68 -9 13 C-9 12.34 -9 11.68 -9 11 C-7.2421875 10.47916667 -5.484375 9.95833333 -3.7265625 9.4375 C-1.58768185 7.65671249 -1.50203777 6.58364446 -0.89208984 3.91015625 C-0.63702164 2.81586304 -0.63702164 2.81586304 -0.37680054 1.69946289 C-0.25245636 1.13864014 -0.12811218 0.57781738 0 0 Z M156 26 C155.67 26.99 155.34 27.98 155 29 C139.82 29.33 124.64 29.66 109 30 C109 30.66 109 31.32 109 32 C107.02 32.99 107.02 32.99 105 34 C105.27540704 37.81813447 105.27540704 37.81813447 107 41 C108.48630183 41.11727496 109.97799397 41.16724886 111.46875 41.18945312 C112.42064209 41.20617065 113.37253418 41.22288818 114.35327148 41.2401123 C115.39169189 41.25368774 116.4301123 41.26726318 117.5 41.28125 C119.09726929 41.30886414 119.09726929 41.30886414 120.72680664 41.33703613 C124.15114625 41.39599015 127.57553852 41.44864508 131 41.5 C134.39589085 41.55156241 137.79171813 41.60464221 141.1875 41.66296387 C143.30332039 41.69928185 145.41921077 41.73178738 147.53515625 41.7598877 C152.0766188 41.83758835 156.52208751 42.01201473 161.03125 42.57617188 C164.89530743 42.98881974 166.64922787 42.8375202 170 41 C170 40.01 170 39.02 170 38 C170.66 38 171.32 38 172 38 C172.8381603 34.6473588 173.4075613 32.21728297 172 29 C169.95910144 26.1255155 169.95910144 26.1255155 167 24 C162.84991128 23.49033998 159.45747737 23.47338192 156 26 Z M-21.5625 62.375 C-23.80793558 66.47536062 -23.76559728 70.43673703 -23 75 C-21.39294394 77.69642699 -21.39294394 77.69642699 -19 79 C-18.01 79 -17.02 79 -16 79 C-16 79.66 -16 80.32 -16 81 C-15.01 81 -14.02 81 -13 81 C-13 80.34 -13 79.68 -13 79 C-12.401875 78.855625 -11.80375 78.71125 -11.1875 78.5625 C-9.43849596 78.1127561 -7.71322977 77.57107659 -6 77 C-4.75554176 73.26662527 -4.35967275 69.87209655 -5 66 C-6.7698823 62.8133497 -6.7698823 62.8133497 -10 61 C-14.27939739 60.13955177 -17.69893685 60.30186856 -21.5625 62.375 Z M51 92 C50.67 93.32 50.34 94.64 50 96 C49.34 96 48.68 96 48 96 C48 96.66 48 97.32 48 98 C48.66 98 49.32 98 50 98 C50.33 98.99 50.66 99.98 51 101 C59.80889938 101.88969174 68.52488461 102.14703256 77.375 102.1328125 C78.71590187 102.13348822 80.05680362 102.13446047 81.39770508 102.13571167 C84.18100168 102.13717196 86.96426581 102.13508577 89.74755859 102.13037109 C93.30939262 102.12463 96.871152 102.12799077 100.4329834 102.13394356 C103.85116162 102.13842279 107.26931966 102.13529027 110.6875 102.1328125 C112.60151611 102.13584885 112.60151611 102.13584885 114.55419922 102.13894653 C116.32754639 102.13421829 116.32754639 102.13421829 118.13671875 102.12939453 C119.17530029 102.12859894 120.21388184 102.12780334 121.28393555 102.12698364 C123.68863354 102.01455726 125.70425072 101.69132384 128 101 C128.88015373 98.11949687 129.29915302 96.62323064 127.97111511 93.85650635 C125.13854675 91.1886352 122.46494326 91.46904273 118.7746582 91.54589844 C118.04270233 91.54531433 117.31074646 91.54473022 116.55661011 91.54412842 C114.13751783 91.54691493 111.71965821 91.57803162 109.30078125 91.609375 C107.62355726 91.61683542 105.94632456 91.62252929 104.26908875 91.62652588 C99.85476614 91.64179799 95.44097005 91.68109302 91.02685547 91.7253418 C86.5225334 91.76626071 82.01812624 91.78452965 77.51367188 91.8046875 C68.67554993 91.84758605 59.83781875 91.91585619 51 92 Z M11 103 C10.11360834 106.81830256 9.3577836 110.33659419 11 114 C13.33323579 117.14089434 14.64269355 117.91705386 18.5 118.8125 C22.88113153 119.04720347 24.71765112 118.98924056 28.1875 116.3125 C30.92574004 112.8188834 31 109.76519162 31 105.4375 C29.44482372 101.64675783 26.58789584 99.83195529 23 98 C17.70512521 97.27797162 14.29145009 98.83082988 11 103 Z M144 103 C141.30908669 106.5406754 141.56424752 110.75577088 142 115 C143.00875212 117.81009519 143.33395417 118.66697708 146 120 C148.07564676 120.19758231 148.07564676 120.19758231 150.375 120.1875 C151.14585937 120.20167969 151.91671875 120.21585938 152.7109375 120.23046875 C155.28261026 119.97154607 156.84834486 119.42653788 159 118 C160.29721449 114.10835652 160.13033993 111.10570774 160 107 C159.67 106.34 159.34 105.68 159 105 C158.01 105 157.02 105 156 105 C155.67 104.01 155.34 103.02 155 102 C153.1128125 101.9690625 153.1128125 101.9690625 151.1875 101.9375 C150.47980469 101.92589844 149.77210938 101.91429687 149.04296875 101.90234375 C146.79694539 101.91736783 146.79694539 101.91736783 144 103 Z M106.5096283 139.86140442 C104.71069746 141.93158826 104.71069746 141.93158826 105.1875 144.6875 C105.78926899 146.93351267 105.78926899 146.93351267 107 148 C109.46739646 148.1356058 111.90845964 148.20723163 114.37792969 148.23706055 C115.53653 148.25672882 115.53653 148.25672882 116.71853638 148.27679443 C119.28626448 148.31876138 121.8540239 148.35317276 124.421875 148.38671875 C126.20208937 148.41236472 127.98230176 148.43814875 129.76251221 148.46406555 C133.50179227 148.51712725 137.24110181 148.56603432 140.98046875 148.61254883 C145.77018893 148.67280837 150.55957925 148.74704368 155.34904099 148.82492352 C159.02927584 148.88257102 162.70959048 148.93084781 166.38999176 148.976511 C168.15545622 148.99990609 169.92087952 149.02665679 171.68624115 149.05682945 C174.15897985 149.09806105 176.6315426 149.1261996 179.10449219 149.15112305 C179.83300385 149.16609329 180.5615155 149.18106354 181.31210327 149.19648743 C185.3133435 149.22136936 188.44672773 148.90599163 192 147 C193.08568503 145.15732132 193.08568503 145.15732132 193 143 C192.3498008 140.78265886 192.3498008 140.78265886 191 139 C187.43433367 137.81144456 184.18284733 137.83682899 180.47094727 137.82299805 C179.70640228 137.81642685 178.9418573 137.80985565 178.15414429 137.80308533 C175.62489727 137.78337868 173.09570946 137.77169767 170.56640625 137.76171875 C169.27066335 137.75560546 169.27066335 137.75560546 167.94874382 137.74936867 C163.37948725 137.72852247 158.81026061 137.71421262 154.2409668 137.70483398 C149.51845011 137.69375256 144.79640242 137.65932886 140.07405186 137.61966228 C136.44438285 137.5935457 132.81482666 137.58514675 129.18507195 137.58155251 C127.4439164 137.57667628 125.70276624 137.56503287 123.96170235 137.54651451 C121.52690243 137.52222027 119.09333074 137.52306938 116.65844727 137.5300293 C115.93883316 137.51721924 115.21921906 137.50440918 114.47779846 137.49121094 C111.06418611 137.52680812 109.27724119 137.79277873 106.5096283 139.86140442 Z " fill="#D68615" transform="translate(144,102)"/>
<path d="M0 0 C53.13 0 106.26 0 161 0 C160.67 1.65 160.34 3.3 160 5 C159.01 5.66 158.02 6.32 157 7 C155.80767387 9.05003955 155.80767387 9.05003955 155 11 C154.34 11 153.68 11 153 11 C152.67 12.32 152.34 13.64 152 15 C96.065 15.495 96.065 15.495 39 16 C38.34 17.32 37.68 18.64 37 20 C36.34 20 35.68 20 35 20 C35 20.66 35 21.32 35 22 C36.32 22.66 37.64 23.32 39 24 C39 24.66 39 25.32 39 26 C50.22 26 61.44 26 73 26 C73 25.34 73 24.68 73 24 C81.14509342 23.9768229 89.29017304 23.95905752 97.43529129 23.94818783 C101.21745214 23.94297076 104.99959042 23.93589443 108.78173828 23.92456055 C112.43216931 23.91368992 116.08257863 23.9077143 119.7330246 23.90512276 C121.12526542 23.90327605 122.51750506 23.8996699 123.90973663 23.89426994 C125.86071106 23.88700424 127.81170736 23.88659147 129.76269531 23.88647461 C130.8730011 23.884254 131.98330688 23.88203339 133.1272583 23.87974548 C135.6206284 23.9841193 137.62018448 24.3164693 140 25 C141.91360971 25.21648378 143.83083621 25.40256968 145.75 25.5625 C146.73484375 25.64628906 147.7196875 25.73007812 148.734375 25.81640625 C149.85585938 25.90728516 149.85585938 25.90728516 151 26 C152.42258812 29.82320557 153.24042276 32.91281305 153 37 C153.66 37 154.32 37 155 37 C155 38.65 155 40.3 155 42 C115.4 42.495 115.4 42.495 75 43 C74.67 44.98 74.34 46.96 74 49 C75.99657574 50.99657574 79.99612598 50.18493427 82.73266602 50.20532227 C83.5423584 50.21522186 84.35205078 50.22512146 85.1862793 50.23532104 C87.87545805 50.26702987 90.5646545 50.29173035 93.25390625 50.31640625 C95.11336234 50.33696769 96.97281368 50.35796394 98.83226013 50.37937927 C103.73623815 50.43468366 108.64025893 50.4840559 113.54431152 50.53222656 C118.54455388 50.58238066 123.54473382 50.63809845 128.54492188 50.69335938 C138.36322799 50.80104321 148.18158819 50.90246532 158 51 C158 51.99 158 52.98 158 54 C158.66 54 159.32 54 160 54 C160.65251353 57.68896265 161.13188906 61.24907501 161 65 C158.51192893 68.45565426 157.01114543 69.66295152 153 71 C152.29848848 72.3153341 151.63474075 73.65117592 151 75 C149.40784307 76.97320499 148.53783492 77.89350665 146.02024841 78.39199829 C145.26905228 78.40008514 144.51785614 78.408172 143.74389648 78.41650391 C142.88968613 78.43307037 142.03547577 78.44963684 141.15538025 78.46670532 C140.2365657 78.46995819 139.31775116 78.47321106 138.37109375 78.4765625 C137.42565201 78.49214203 136.48021027 78.50772156 135.50611877 78.52377319 C132.48325428 78.57134444 129.46062115 78.59907313 126.4375 78.625 C123.41097138 78.66146709 120.38457454 78.70206889 117.35816956 78.74765015 C115.4740823 78.77491165 113.58989846 78.79624772 111.70567322 78.81118774 C110.85461502 78.82144989 110.00355682 78.83171204 109.12670898 78.84228516 C108.37630844 78.84878082 107.6259079 78.85527649 106.85276794 78.86196899 C104.90531169 78.88920786 104.90531169 78.88920786 103 80 C102.24756445 81.92638012 102.24756445 81.92638012 102 84 C102.33 84.66 102.66 85.32 103 86 C103.68626465 86.02505615 104.3725293 86.0501123 105.07958984 86.07592773 C108.17825817 86.19171427 111.27660923 86.31451885 114.375 86.4375 C115.45523438 86.47681641 116.53546875 86.51613281 117.6484375 86.55664062 C118.6796875 86.59853516 119.7109375 86.64042969 120.7734375 86.68359375 C121.72653809 86.72025146 122.67963867 86.75690918 123.66162109 86.79467773 C126 87 126 87 128 88 C128.13530844 91.06398451 128.2342407 94.12197126 128.3125 97.1875 C128.3753418 98.48397461 128.3753418 98.48397461 128.43945312 99.80664062 C128.52762947 104.40944596 128.50010036 106.34978795 125.60546875 110.11328125 C123 112 123 112 121 112 C120.505 113.485 120.505 113.485 120 115 C119.13375 115.4021875 119.13375 115.4021875 118.25 115.8125 C114.97654362 117.54015753 112.78774805 119.79988952 111 123 C110.46060974 126.15882654 110.59205314 129.2426728 110.6875 132.4375 C110.60532801 141.04521935 110.60532801 141.04521935 108.3828125 144.55078125 C106.33953208 146.22781329 104.23559964 147.59500207 102 149 C100.3983303 150.67850483 100.3983303 150.67850483 99 152.5 C96.24111964 155.85600788 93.14716672 158.6232991 89.83203125 161.421875 C87.99959142 162.9181248 87.99959142 162.9181248 86.65922546 164.5773468 C84.52261315 166.40932107 83.4067763 166.36452816 80.62036133 166.34057617 C79.73967484 166.34034958 78.85898834 166.34012299 77.95161438 166.33988953 C77.00465195 166.32440567 76.05768951 166.30892181 75.08203125 166.29296875 C74.10965012 166.28872391 73.13726898 166.28447906 72.13542175 166.28010559 C69.02750034 166.26330315 65.92022566 166.22564779 62.8125 166.1875 C60.70638957 166.1724552 58.60026898 166.15876644 56.49414062 166.14648438 C51.32897704 166.11594537 46.16521302 166.05722641 41 166 C40.505 153.13 40.505 153.13 40 140 C38.68 139.34 37.36 138.68 36 138 C35.67 137.01 35.34 136.02 35 135 C34.01 134.67 33.02 134.34 32 134 C31.67 133.01 31.34 132.02 31 131 C29.67151309 129.99357052 28.33849671 128.99307821 27 128 C27 127.34 27 126.68 27 126 C26.01 126 25.02 126 24 126 C23.99589111 125.20827393 23.99178223 124.41654785 23.98754883 123.60083008 C23.95459846 120.00396748 23.88394957 116.40879525 23.8125 112.8125 C23.80669922 111.56662109 23.80089844 110.32074219 23.79492188 109.03710938 C23.94260703 101.81266466 23.94260703 101.81266466 20.63671875 95.76171875 C18.75849656 94.50678807 16.87950743 93.25300495 15 92 C14.71125 91.401875 14.4225 90.80375 14.125 90.1875 C13.05382297 87.74520611 13.05382297 87.74520611 10.3125 85.8125 C8 83 8 83 7.828125 80.85546875 C8.24138633 76.70219237 8.98614684 72.69206413 11 69 C14.09055955 66.93962697 14.70926162 66.75200758 18.19604492 66.77294922 C19.45701241 66.77317581 19.45701241 66.77317581 20.74345398 66.77340698 C22.09827629 66.78889084 22.09827629 66.78889084 23.48046875 66.8046875 C24.87245232 66.80893234 24.87245232 66.80893234 26.29255676 66.81326294 C29.25766879 66.82446164 32.22247921 66.84956565 35.1875 66.875 C37.19726126 66.8850302 39.20702726 66.89415598 41.21679688 66.90234375 C46.14464753 66.92439996 51.07227262 66.95892771 56 67 C56 66.34 56 65.68 56 65 C56.99 65 57.98 65 59 65 C58.505 61.04 58.505 61.04 58 57 C45.46 56.67 32.92 56.34 20 56 C19.625 43.3125 19.625 43.3125 19.52197266 39.3371582 C19.4863623 38.29390381 19.45075195 37.25064941 19.4140625 36.17578125 C19.36693115 34.58117065 19.36693115 34.58117065 19.31884766 32.9543457 C18.89406285 29.01841847 18.05833778 26.08217422 15.265625 23.2265625 C14.60046875 22.69804687 13.9353125 22.16953125 13.25 21.625 C9.83559052 18.79414414 6.99959819 15.83748825 4.2265625 12.3828125 C3.02824461 10.85896891 3.02824461 10.85896891 1 10 C1 9.01 1 8.02 1 7 C0.34 7 -0.32 7 -1 7 C-0.67 4.69 -0.34 2.38 0 0 Z M70 89 C69.11306697 91.04105639 69.11306697 91.04105639 69 93 C68.34 93 67.68 93 67 93 C67 95.97 67 98.94 67 102 C67.66 102 68.32 102 69 102 C69.33 103.32 69.66 104.64 70 106 C70.969375 106.12375 71.93875 106.2475 72.9375 106.375 C74.4534375 106.684375 74.4534375 106.684375 76 107 C76.33 107.66 76.66 108.32 77 109 C77 108.34 77 107.68 77 107 C77.928125 106.87625 78.85625 106.7525 79.8125 106.625 C83.13925235 106.18466918 83.13925235 106.18466918 86 104 C86.61611847 102.14188086 86.61611847 102.14188086 86.75 100.0625 C86.86601562 99.02802734 86.86601562 99.02802734 86.984375 97.97265625 C87.10814587 95.78488438 87.10814587 95.78488438 86 93 C85.34 93 84.68 93 84 93 C83.938125 92.38125 83.87625 91.7625 83.8125 91.125 C83.17578517 88.75878687 83.17578517 88.75878687 80.625 87.75 C76.47404463 86.56401275 73.78493338 87.0079298 70 89 Z M64 129 C64 129.66 64 130.32 64 131 C62.68 131 61.36 131 60 131 C57.70475449 132.61517277 57.07813919 133.74604764 56.25 136.4375 C56.00414816 138.95748133 56.20580932 140.61742795 57 143 C57.66 143 58.32 143 59 143 C59.33 144.32 59.66 145.64 60 147 C63.01329159 147.90123561 65.49438323 148.08996269 68.625 147.8125 C69.40101563 147.75707031 70.17703125 147.70164062 70.9765625 147.64453125 C73.14615285 147.17904935 73.14615285 147.17904935 74.2578125 145.19921875 C75.66504993 141.02935204 75.53072507 136.83341388 74.3125 132.625 C72.48163737 130.35821769 70.77637769 129.79325077 68 129 C66.68 129 65.36 129 64 129 Z " fill="#D68819" transform="translate(221,285)"/>
<path d="M0 0 C0 0.99 0 1.98 0 3 C0.99 3.33 1.98 3.66 3 4 C3 4.66 3 5.32 3 6 C3.66 6 4.32 6 5 6 C6.47265625 7.390625 6.47265625 7.390625 8.0625 9.25 C8.58972656 9.85328125 9.11695313 10.4565625 9.66015625 11.078125 C11.06109429 13.08763379 11.4328937 14.65127655 12 17 C12.66 17.33 13.32 17.66 14 18 C14.66 18.33 15.32 18.66 16 19 C16.36162029 20.32594105 16.69728039 21.65938457 17 23 C17.99 23.33 18.98 23.66 20 24 C20.33333333 25.33333333 20.66666667 26.66666667 21 28 C21.99 28.33 22.98 28.66 24 29 C25.64820195 31.60242414 26 32.86248779 26 36 C26.99 36.33 27.98 36.66 29 37 C29.33 37.99 29.66 38.98 30 40 C30.99 40.66 31.98 41.32 33 42 C34.1875 45.625 34.1875 45.625 35 49 C35.66 49 36.32 49 37 49 C40 54.625 40 54.625 40 58 C40.66 58 41.32 58 42 58 C42.66 60.31 43.32 62.62 44 65 C44.66 65 45.32 65 46 65 C46.50559908 66.43554025 47.0042749 67.8735202 47.5 69.3125 C47.7784375 70.11300781 48.056875 70.91351563 48.34375 71.73828125 C49 74 49 74 49 77 C49.66 77 50.32 77 51 77 C52.60355101 80.50776784 53.22036864 83.14354879 53 87 C53.66 87 54.32 87 55 87 C55.50744423 88.89385437 56.00564574 90.79018666 56.5 92.6875 C56.7784375 93.74324219 57.056875 94.79898438 57.34375 95.88671875 C57.9391715 98.71142672 58.12786492 101.12836708 58 104 C58.66 104 59.32 104 60 104 C61.40454548 110.11980533 62.23268915 115.71739294 62 122 C62.66 122 63.32 122 64 122 C65.7252196 135.33017055 66.31589953 148.46028395 66.26074219 161.89746094 C66.25001058 164.99694365 66.26071472 168.09584704 66.2734375 171.1953125 C66.28081745 183.59067096 65.59103476 195.70662895 64 208 C63.34 208 62.68 208 62 208 C62.04125 209.11375 62.0825 210.2275 62.125 211.375 C62.14300722 216.39901336 61.11958236 221.1218197 60 226 C59.34 226 58.68 226 58 226 C57.92652344 226.85271484 57.92652344 226.85271484 57.8515625 227.72265625 C57.36856919 232.71081129 56.52361837 237.22599578 55 242 C54.34 242 53.68 242 53 242 C52.67 242.99 52.34 243.98 52 245 C51.01 245 50.02 245 49 245 C49 245.66 49 246.32 49 247 C46.69 247 44.38 247 42 247 C41.34 245.35 40.68 243.7 40 242 C39.34 242 38.68 242 38 242 C38 239.03 38 236.06 38 233 C38.66 233 39.32 233 40 233 C40.13277344 232.16855469 40.26554687 231.33710938 40.40234375 230.48046875 C40.57894531 229.39378906 40.75554687 228.30710937 40.9375 227.1875 C41.11152344 226.10855469 41.28554688 225.02960938 41.46484375 223.91796875 C42 221 42 221 43 218 C43.66 218 44.32 218 45 218 C45.04898438 217.28199219 45.09796875 216.56398438 45.1484375 215.82421875 C45.86836666 205.85692363 46.91956725 195.93368756 48 186 C48.66 186 49.32 186 50 186 C50 171.48 50 156.96 50 142 C49.34 142 48.68 142 48 142 C47.49530384 137.77137996 46.99706416 133.54202341 46.5 129.3125 C46.35691406 128.11431641 46.21382813 126.91613281 46.06640625 125.68164062 C45.86337891 123.94624023 45.86337891 123.94624023 45.65625 122.17578125 C45.53056641 121.11270752 45.40488281 120.04963379 45.27539062 118.9543457 C45.02605799 116.27954584 44.94792733 113.68391231 45 111 C44.34 111 43.68 111 43 111 C42.01 106.05 41.02 101.1 40 96 C39.34 96 38.68 96 38 96 C37.34 92.37 36.68 88.74 36 85 C35.34 85 34.68 85 34 85 C33.01 81.37 32.02 77.74 31 74 C30.34 74 29.68 74 29 74 C27.74335022 71.09399739 27 69.20395416 27 66 C26.34 66 25.68 66 25 66 C22 60.375 22 60.375 22 57 C21.34 57 20.68 57 20 57 C19.34 55.02 18.68 53.04 18 51 C17.34 51 16.68 51 16 51 C15.3503125 49.329375 15.3503125 49.329375 14.6875 47.625 C13.30088881 43.82487666 13.30088881 43.82487666 10 42 C9.31731862 40.67479497 8.6492959 39.34187818 8 38 C7.34 37.67 6.68 37.34 6 37 C5.33333333 35.66666667 4.66666667 34.33333333 4 33 C3.505 32.525625 3.01 32.05125 2.5 31.5625 C1 30 1 30 0.0625 27.4375 C-0.78929161 24.85128305 -0.78929161 24.85128305 -3.125 23.6875 C-3.74375 23.460625 -4.3625 23.23375 -5 23 C-5 22.34 -5 21.68 -5 21 C-5.66 21 -6.32 21 -7 21 C-8.0064275 19.33720673 -9.00585407 17.67016516 -10 16 C-10.99 15.34 -11.98 14.68 -13 14 C-13.58203125 12.16015625 -13.58203125 12.16015625 -13.8125 10.0625 C-13.90144531 9.37285156 -13.99039062 8.68320313 -14.08203125 7.97265625 C-14 6 -14 6 -12 3 C-11.34 3 -10.68 3 -10 3 C-10 2.34 -10 1.68 -10 1 C-6.42181037 -1.33958553 -4.07775191 -0.9267618 0 0 Z " fill="#D58615" transform="translate(408,93)"/>
<path d="M0 0 C1.98 0 3.96 0 6 0 C6 0.66 6 1.32 6 2 C6.66 2 7.32 2 8 2 C8.33 3.32 8.66 4.64 9 6 C9.66 6 10.32 6 11 6 C11.33 7.98 11.66 9.96 12 12 C11.34 12 10.68 12 10 12 C8.68 17.94 7.36 23.88 6 30 C5.34 30 4.68 30 4 30 C3.90912109 30.99580078 3.90912109 30.99580078 3.81640625 32.01171875 C2.98418278 40.78207381 2.98418278 40.78207381 2 45 C1.34 45 0.68 45 0 45 C-0.09087891 46.63195312 -0.09087891 46.63195312 -0.18359375 48.296875 C-0.26786889 49.7812705 -0.35253212 51.26564399 -0.4375 52.75 C-0.50408813 53.91764893 -0.50408813 53.91764893 -0.57202148 55.10888672 C-0.8271557 59.45737819 -1.14665621 63.78834329 -1.5625 68.125 C-3.39434023 89.84539131 -1.60637526 112.29684493 0 134 C0.66 134 1.32 134 2 134 C4.29612756 143.41002278 4.29612756 143.41002278 4 148 C4.66 148 5.32 148 6 148 C6.50588147 149.91512272 7.00448391 151.83216922 7.5 153.75 C7.7784375 154.81734375 8.056875 155.8846875 8.34375 156.984375 C9 160 9 160 9 164 C9.66 164 10.32 164 11 164 C12.25664978 166.90600261 13 168.79604584 13 172 C13.66 172 14.32 172 15 172 C15.50559908 173.43554025 16.0042749 174.8735202 16.5 176.3125 C16.7784375 177.11300781 17.056875 177.91351563 17.34375 178.73828125 C18 181 18 181 18 184 C18.66 184 19.32 184 20 184 C20.433125 184.886875 20.86625 185.77375 21.3125 186.6875 C22.34951767 188.72312727 23.44292791 190.73253463 24.625 192.6875 C26 195 26 195 27 198 C27.474375 198.433125 27.94875 198.86625 28.4375 199.3125 C30.56496206 201.61015902 31.14128008 204.02750796 32 207 C32.66 207 33.32 207 34 207 C36 210 36 210 36 213 C36.99 213.33 37.98 213.66 39 214 C41.02182788 216.98022681 41.19748768 219.10397854 40.75 222.625 C40.66234375 223.40101563 40.5746875 224.17703125 40.484375 224.9765625 C40 227 40 227 38 229 C34.94294 229.57057112 32.06188582 229.52353488 29 229 C25.38125724 226.28594293 23.92996426 224.3398332 23 220 C22.01 219.67 21.02 219.34 20 219 C19.505 216.525 19.505 216.525 19 214 C18.01 213.67 17.02 213.34 16 213 C14.8125 209.4375 14.8125 209.4375 14 206 C13.34 206 12.68 206 12 206 C11.71125 205.195625 11.4225 204.39125 11.125 203.5625 C10.26737432 200.8673532 10.26737432 200.8673532 8 200 C7.1484375 197.71484375 7.1484375 197.71484375 6.375 194.9375 C5.98441406 193.55884766 5.98441406 193.55884766 5.5859375 192.15234375 C5.29589844 191.08693359 5.29589844 191.08693359 5 190 C4.34 190 3.68 190 3 190 C2.49384702 188.73160474 1.99530901 187.46016898 1.5 186.1875 C1.08234375 185.12595703 1.08234375 185.12595703 0.65625 184.04296875 C0 182 0 182 0 179 C-0.66 179 -1.32 179 -2 179 C-2.66 176.03 -3.32 173.06 -4 170 C-4.66 170 -5.32 170 -6 170 C-6.50806447 168.27318563 -7.00610467 166.54342021 -7.5 164.8125 C-7.7784375 163.84957031 -8.056875 162.88664063 -8.34375 161.89453125 C-8.96677608 159.14654124 -9.12302812 156.80401584 -9 154 C-9.66 154 -10.32 154 -11 154 C-11.20496094 153.07316406 -11.40992188 152.14632812 -11.62109375 151.19140625 C-12.02521484 149.39509766 -12.02521484 149.39509766 -12.4375 147.5625 C-12.70433594 146.36753906 -12.97117187 145.17257812 -13.24609375 143.94140625 C-13.70066748 141.1295314 -13.70066748 141.1295314 -15 140 C-15.67108679 136.6542283 -16.05704166 133.25754129 -16.5 129.875 C-16.6345459 128.85776855 -16.7690918 127.84053711 -16.90771484 126.79248047 C-17.97460117 118.2377056 -18.46972539 109.71578873 -18.70898438 101.10107422 C-18.73541016 100.18342285 -18.76183594 99.26577148 -18.7890625 98.3203125 C-18.81540771 97.10239014 -18.81540771 97.10239014 -18.84228516 95.85986328 C-18.79994222 93.98511431 -18.79994222 93.98511431 -20 93 C-20.07244053 90.98035801 -20.08377188 88.95832876 -20.0625 86.9375 C-20.05347656 85.83277344 -20.04445312 84.72804688 -20.03515625 83.58984375 C-20.02355469 82.73519531 -20.01195312 81.88054687 -20 81 C-19.34 81 -18.68 81 -18 81 C-18.03480469 79.6903125 -18.06960937 78.380625 -18.10546875 77.03125 C-18.3584727 62.79187155 -17.09102904 49.07737103 -15 35 C-14.34 35 -13.68 35 -13 35 C-12.93941406 34.33613281 -12.87882812 33.67226562 -12.81640625 32.98828125 C-11.98418278 24.21792619 -11.98418278 24.21792619 -11 20 C-10.34 20 -9.68 20 -9 20 C-8.86722656 19.22914063 -8.73445313 18.45828125 -8.59765625 17.6640625 C-8.42105469 16.66117188 -8.24445312 15.65828125 -8.0625 14.625 C-7.80146484 13.12839844 -7.80146484 13.12839844 -7.53515625 11.6015625 C-7 9 -7 9 -6 7 C-5.34 7 -4.68 7 -4 7 C-3.67 5.35 -3.34 3.7 -3 2 C-2.01 2 -1.02 2 0 2 C0 1.34 0 0.68 0 0 Z " fill="#D58717" transform="translate(64,168)"/>
<path d="M0 0 C1.17755859 -0.00773437 1.17755859 -0.00773437 2.37890625 -0.015625 C4.4375 0.25 4.4375 0.25 6.4375 2.25 C7.65086193 7.22478391 7.53918225 12.16588755 7.4375 17.25 C8.0975 17.25 8.7575 17.25 9.4375 17.25 C9.94199402 19.83252893 10.44124301 22.41588703 10.9375 25 C11.08058594 25.72960937 11.22367188 26.45921875 11.37109375 27.2109375 C12.02638879 30.64343532 12.4375 33.74169491 12.4375 37.25 C13.0975 37.25 13.7575 37.25 14.4375 37.25 C15.75376692 40.86973402 16.4375 43.34567131 16.4375 47.25 C17.0975 47.25 17.7575 47.25 18.4375 47.25 C18.94262244 48.85256108 19.44141627 50.45711792 19.9375 52.0625 C20.2159375 52.95582031 20.494375 53.84914063 20.78125 54.76953125 C21.4375 57.25 21.4375 57.25 21.4375 60.25 C22.0975 60.25 22.7575 60.25 23.4375 60.25 C24.69414978 63.15600261 25.4375 65.04604584 25.4375 68.25 C26.0975 68.25 26.7575 68.25 27.4375 68.25 C30.4375 73.875 30.4375 73.875 30.4375 77.25 C31.4275 77.58 32.4175 77.91 33.4375 78.25 C33.7675 79.24 34.0975 80.23 34.4375 81.25 C35.4275 81.91 36.4175 82.57 37.4375 83.25 C38.625 86.375 38.625 86.375 39.4375 89.25 C40.0975 89.25 40.7575 89.25 41.4375 89.25 C43.73398649 91.8114657 44.4375 92.72967572 44.4375 96.25 C45.7575 96.91 47.0775 97.57 48.4375 98.25 C48.4375 98.91 48.4375 99.57 48.4375 100.25 C49.076875 100.518125 49.71625 100.78625 50.375 101.0625 C52.4375 102.25 52.4375 102.25 53.4375 105.25 C54.93345331 106.77032049 54.93345331 106.77032049 56.75 108.1875 C59.46305922 110.42243813 61.9511879 112.7636879 64.4375 115.25 C65.0975 115.58 65.7575 115.91 66.4375 116.25 C66.4375 116.91 66.4375 117.57 66.4375 118.25 C68.76964148 119.45628008 70.93392139 120.4154738 73.4375 121.25 C74.4275 122.735 74.4275 122.735 75.4375 124.25 C76.9225 124.745 76.9225 124.745 78.4375 125.25 C79.45854551 126.22850195 80.4581121 127.22980427 81.4375 128.25 C82.9225 129.24 82.9225 129.24 84.4375 130.25 C84.4375 130.91 84.4375 131.57 84.4375 132.25 C85.22125 132.394375 86.005 132.53875 86.8125 132.6875 C89.4375 133.25 89.4375 133.25 91.4375 134.25 C91.4375 134.91 91.4375 135.57 91.4375 136.25 C94.4075 137.24 97.3775 138.23 100.4375 139.25 C100.4375 139.91 100.4375 140.57 100.4375 141.25 C101.38625 141.394375 102.335 141.53875 103.3125 141.6875 C106.4375 142.25 106.4375 142.25 108.4375 143.25 C108.4375 143.91 108.4375 144.57 108.4375 145.25 C109.04078125 145.38277344 109.6440625 145.51554688 110.265625 145.65234375 C111.46445313 145.91724609 111.46445313 145.91724609 112.6875 146.1875 C113.47640625 146.36152344 114.2653125 146.53554688 115.078125 146.71484375 C117.20628703 147.197556 119.32282842 147.71163178 121.4375 148.25 C121.4375 148.91 121.4375 149.57 121.4375 150.25 C127.42857278 151.02662055 133.42423249 151.67085333 139.4375 152.25 C139.7675 153.24 140.0975 154.23 140.4375 155.25 C141.365625 155.1675 142.29375 155.085 143.25 155 C146.4375 155.25 146.4375 155.25 148.125 156.9375 C149.69226002 159.6988629 149.74928774 161.3513773 149.625 164.5 C149.58439453 165.83804688 149.58439453 165.83804688 149.54296875 167.203125 C149.50816406 167.87859375 149.47335938 168.5540625 149.4375 169.25 C142.38031971 172.27450584 135.80006103 170.57750754 128.4375 169.25 C128.4375 168.59 128.4375 167.93 128.4375 167.25 C127.2 167.105625 125.9625 166.96125 124.6875 166.8125 C121.87245501 166.46311498 119.1673503 166.04620634 116.4375 165.25 C116.4375 164.59 116.4375 163.93 116.4375 163.25 C113.1375 162.92 109.8375 162.59 106.4375 162.25 C106.4375 161.59 106.4375 160.93 106.4375 160.25 C105.7775 160.25 105.1175 160.25 104.4375 160.25 C104.4375 159.59 104.4375 158.93 104.4375 158.25 C102.766875 158.0334375 102.766875 158.0334375 101.0625 157.8125 C97.4375 157.25 97.4375 157.25 95.4375 156.25 C95.4375 155.59 95.4375 154.93 95.4375 154.25 C94.385625 154.0953125 94.385625 154.0953125 93.3125 153.9375 C90.01540533 153.14906432 87.42944614 151.83756326 84.4375 150.25 C83.344375 149.734375 82.25125 149.21875 81.125 148.6875 C78.4375 147.25 78.4375 147.25 77.4375 145.25 C76.303125 144.775625 75.16875 144.30125 74 143.8125 C70.4375 142.25 70.4375 142.25 68.4375 139.25 C67.674375 138.981875 66.91125 138.71375 66.125 138.4375 C63.08110082 137.09252129 61.76554922 135.36755751 59.76171875 132.76953125 C57.69179389 130.39430774 55.08531284 128.91927331 52.4375 127.25 C50.5625 125.625 50.5625 125.625 49.4375 124.25 C49.4375 123.59 49.4375 122.93 49.4375 122.25 C48.798125 121.981875 48.15875 121.71375 47.5 121.4375 C45.4375 120.25 45.4375 120.25 44.4375 117.25 C42.43733534 116.04117904 42.43733534 116.04117904 40.4375 115.25 C40.4375 114.59 40.4375 113.93 40.4375 113.25 C39.7775 113.25 39.1175 113.25 38.4375 113.25 C37.4310725 111.58720673 36.43164593 109.92016516 35.4375 108.25 C34.4475 107.59 33.4575 106.93 32.4375 106.25 C32.1075 105.26 31.7775 104.27 31.4375 103.25 C29.6457778 101.33882966 27.81214067 99.56700365 25.8125 97.875 C23.87105841 95.58056903 23.2627621 93.1066765 22.4375 90.25 C21.7775 90.25 21.1175 90.25 20.4375 90.25 C17.4375 84.625 17.4375 84.625 17.4375 81.25 C15.9525 80.755 15.9525 80.755 14.4375 80.25 C13.25 76.6875 13.25 76.6875 12.4375 73.25 C11.7775 73.25 11.1175 73.25 10.4375 73.25 C9.7775 70.61 9.1175 67.97 8.4375 65.25 C7.7775 65.25 7.1175 65.25 6.4375 65.25 C5.92992138 63.83603098 5.43175075 62.41868271 4.9375 61 C4.6590625 60.21109375 4.380625 59.4221875 4.09375 58.609375 C3.4375 56.25 3.4375 56.25 3.4375 52.25 C2.7775 52.25 2.1175 52.25 1.4375 52.25 C1.25574219 51.56035156 1.07398437 50.87070312 0.88671875 50.16015625 C-0.32244983 45.63972601 -1.55098026 41.19805043 -3.1875 36.8125 C-5.05753179 31.42759171 -5.28491827 25.90692432 -5.5625 20.25 C-6.2225 20.25 -6.8825 20.25 -7.5625 20.25 C-7.64319658 17.29112541 -7.70284665 14.3344341 -7.75 11.375 C-7.77513672 10.53324219 -7.80027344 9.69148438 -7.82617188 8.82421875 C-7.83583984 8.01855469 -7.84550781 7.21289062 -7.85546875 6.3828125 C-7.8711792 5.63918457 -7.88688965 4.89555664 -7.90307617 4.12939453 C-7.79068604 3.50919434 -7.6782959 2.88899414 -7.5625 2.25 C-4.42838698 0.16059132 -3.58799528 -0.02364412 0 0 Z " fill="#D68718" transform="translate(83.5625,270.75)"/>
<path d="M0 0 C1.65 0 3.3 0 5 0 C5 0.66 5 1.32 5 2 C6.19689453 2.30164063 6.19689453 2.30164063 7.41796875 2.609375 C10 4 10 4 10.92578125 6.828125 C11.05339844 7.95734375 11.18101563 9.0865625 11.3125 10.25 C11.45300781 11.36890625 11.59351562 12.4878125 11.73828125 13.640625 C11.98272914 16.77831433 12.05242429 19.85454273 12 23 C12.66 23 13.32 23 14 23 C14.50636607 24.74816858 15.00484619 26.49862263 15.5 28.25 C15.7784375 29.22453125 16.056875 30.1990625 16.34375 31.203125 C17 34 17 34 17 38 C17.66 38 18.32 38 19 38 C19.66 40.31 20.32 42.62 21 45 C21.66 45 22.32 45 23 45 C23.99 47.97 24.98 50.94 26 54 C26.66 54 27.32 54 28 54 C29.4606285 56.64738916 30 57.89448334 30 61 C30.99 61.33 31.98 61.66 33 62 C33.6837045 63.32467746 34.34964186 64.65863633 35 66 C35.99 66.66 36.98 67.32 38 68 C38.33 68.99 38.66 69.98 39 71 C40.39779556 72.38257459 40.39779556 72.38257459 42.125 73.6875 C46.2354778 77.07210287 49.55020873 80.96374422 53 85 C55.69069802 87.92328625 55.69069802 87.92328625 59 90 C61.50357192 91.25178596 63.06433379 92.99981158 65 95 C65.66 95.33 66.32 95.66 67 96 C67 96.66 67 97.32 67 98 C68.134375 98.28875 69.26875 98.5775 70.4375 98.875 C72.2009375 99.431875 72.2009375 99.431875 74 100 C74.33 100.66 74.66 101.32 75 102 C76.88263881 102.90343684 76.88263881 102.90343684 79.0625 103.625 C79.79597656 103.88539063 80.52945313 104.14578125 81.28515625 104.4140625 C81.85105469 104.60742188 82.41695313 104.80078125 83 105 C83 105.66 83 106.32 83 107 C85.31 107.66 87.62 108.32 90 109 C90 109.66 90 110.32 90 111 C91.4540625 111.185625 91.4540625 111.185625 92.9375 111.375 C95.90878933 111.81159762 98.86422239 112.30251891 101.8125 112.875 C102.56144531 113.01679688 103.31039062 113.15859375 104.08203125 113.3046875 C106 114 106 114 108 117 C108 118.32 108 119.64 108 121 C108.66 121 109.32 121 110 121 C110 121.99 110 122.98 110 124 C109.34 124 108.68 124 108 124 C107.67 125.65 107.34 127.3 107 129 C99.40237976 129.38999191 93.15533979 128.60758587 86 126 C86 125.34 86 124.68 86 124 C83.03 123.34 80.06 122.68 77 122 C77 121.34 77 120.68 77 120 C75.948125 119.814375 75.948125 119.814375 74.875 119.625 C70.04316487 118.57460106 66.38282452 117.70499828 63 114 C61.515 113.505 61.515 113.505 60 113 C59.67 112.34 59.34 111.68 59 111 C58.154375 110.505 57.30875 110.01 56.4375 109.5 C55.633125 109.005 54.82875 108.51 54 108 C54 107.34 54 106.68 54 106 C53.4225 105.9175 52.845 105.835 52.25 105.75 C49.37243109 104.79081036 48.0947375 103.16019805 46 101 C45.35675781 100.69449219 44.71351563 100.38898438 44.05078125 100.07421875 C41.78945807 98.88971613 40.74901564 97.74802001 39.1875 95.75 C36.57312711 92.55022045 33.76638056 89.99759922 30.515625 87.45703125 C28.78336202 85.7917372 28.00717546 84.16454375 27 82 C26.505 81.525625 26.01 81.05125 25.5 80.5625 C23.60096688 78.5843405 22.90100969 76.56441218 22 74 C21.34 74 20.68 74 20 74 C19.54625 73.030625 19.0925 72.06125 18.625 71.0625 C17.34213779 67.92920418 17.34213779 67.92920418 15 67 C14.26924352 64.6859378 13.59861742 62.35171131 13 60 C12.34 60 11.68 60 11 60 C8 53.375 8 53.375 8 50 C7.34 50 6.68 50 6 50 C4.50178941 46.62902617 4 44.79557881 4 41 C3.34 41 2.68 41 2 41 C-1.44419134 29.47835991 -1.44419134 29.47835991 -1 24 C-1.66 24 -2.32 24 -3 24 C-6.38461538 7.28846154 -6.38461538 7.28846154 -3 2 C-2.01 2 -1.02 2 0 2 C0 1.34 0 0.68 0 0 Z " fill="#D68717" transform="translate(111,273)"/>
<path d="M0 0 C2.1640625 -0.29296875 2.1640625 -0.29296875 4.625 -0.1875 C5.44226563 -0.16042969 6.25953125 -0.13335937 7.1015625 -0.10546875 C8.04128906 -0.05326172 8.04128906 -0.05326172 9 0 C9 0.66 9 1.32 9 2 C9.804375 2.268125 10.60875 2.53625 11.4375 2.8125 C12.7059375 3.4003125 12.7059375 3.4003125 14 4 C14.33 4.99 14.66 5.98 15 7 C15.66 7.165 16.32 7.33 17 7.5 C17.66 7.665 18.32 7.83 19 8 C19.33 8.99 19.66 9.98 20 11 C21.6635479 11.67441131 23.33066942 12.3400321 25 13 C26.35368596 14.31266518 27.68799596 15.64567325 29 17 C31.13309192 18.23512079 31.13309192 18.23512079 33 19 C33 19.66 33 20.32 33 21 C33.598125 21.144375 34.19625 21.28875 34.8125 21.4375 C38.52998038 22.39342353 40.33722733 23.33722733 43 26 C45.09989652 27.17574711 45.09989652 27.17574711 47 28 C47 28.66 47 29.32 47 30 C47.763125 30.144375 48.52625 30.28875 49.3125 30.4375 C52 31 52 31 55 32 C55 32.66 55 33.32 55 34 C58.3 34.99 61.6 35.98 65 37 C65 37.66 65 38.32 65 39 C67.97 39.66 70.94 40.32 74 41 C74 41.66 74 42.32 74 43 C74.804375 43.12375 75.60875 43.2475 76.4375 43.375 C80.65858729 44.11554163 84.82335017 45.04401126 89 46 C89 46.66 89 47.32 89 48 C90.9490625 48.185625 90.9490625 48.185625 92.9375 48.375 C97.71849952 48.89863328 102.33114101 49.86313835 107 51 C107 51.66 107 52.32 107 53 C108.37671875 53.09087891 108.37671875 53.09087891 109.78125 53.18359375 C116.218508 53.62311242 122.60935705 54.10530999 129 55 C129 55.66 129 56.32 129 57 C130.794375 56.938125 130.794375 56.938125 132.625 56.875 C136.42329953 56.86148292 139.44975618 57.57990247 143 59 C143.33 60.65 143.66 62.3 144 64 C144.66 64 145.32 64 146 64 C146 65.32 146 66.64 146 68 C145.34 68 144.68 68 144 68 C144 69.32 144 70.64 144 72 C138.03587096 74.98206452 128.45177322 73.2003299 122 72 C122 71.34 122 70.68 122 70 C120.700625 70.02707031 119.40125 70.05414063 118.0625 70.08203125 C113.26584316 70.07921631 108.71673136 69.51642422 104 68.6875 C103.21471924 68.55359863 102.42943848 68.41969727 101.62036133 68.28173828 C96.19332088 67.31570366 91.1722008 65.92861725 86 64 C84.34160126 63.62770641 82.67798725 63.2706431 81 63 C81 62.34 81 61.68 81 61 C79.783125 60.87625 78.56625 60.7525 77.3125 60.625 C73.93520941 60.21108694 71.10243305 59.45426549 68 58 C68 57.34 68 56.68 68 56 C67.071875 55.855625 66.14375 55.71125 65.1875 55.5625 C62 55 62 55 59 54 C59 53.34 59 52.68 59 52 C58.278125 51.87625 57.55625 51.7525 56.8125 51.625 C54.04278106 51.0095069 51.6029646 50.11555626 49 49 C49 48.34 49 47.68 49 47 C48.236875 46.855625 47.47375 46.71125 46.6875 46.5625 C44 46 44 46 41 45 C41 44.34 41 43.68 41 43 C40.37351563 42.80664062 39.74703125 42.61328125 39.1015625 42.4140625 C38.28429687 42.15367187 37.46703125 41.89328125 36.625 41.625 C35.40683594 41.24214844 35.40683594 41.24214844 34.1640625 40.8515625 C32 40 32 40 30 38 C27.1364125 36.17693529 24.23819849 34.41700474 21.3359375 32.65625 C20.56507813 32.1096875 19.79421875 31.563125 19 31 C19 30.34 19 29.68 19 29 C18.21625 28.690625 17.4325 28.38125 16.625 28.0625 C14 27 14 27 12 26 C12 25.34 12 24.68 12 24 C10.68 23.34 9.36 22.68 8 22 C8 21.34 8 20.68 8 20 C7.1646875 19.9071875 7.1646875 19.9071875 6.3125 19.8125 C3.043233 18.66383862 1.32340442 16.51178856 -1 14 C-1.33 13.67 -1.66 13.34 -2 13 C-2.12494616 11.37860563 -2.17571624 9.75115878 -2.1875 8.125 C-2.20167969 7.24070312 -2.21585937 6.35640625 -2.23046875 5.4453125 C-2 3 -2 3 0 0 Z " fill="#D68717" transform="translate(112,405)"/>
<path d="M0 0 C0 0.66 0 1.32 0 2 C1.19496094 2.09087891 1.19496094 2.09087891 2.4140625 2.18359375 C12.93848858 3.01581722 12.93848858 3.01581722 18 4 C18 4.66 18 5.32 18 6 C19.175625 6.12375 20.35125 6.2475 21.5625 6.375 C25.54120426 6.86435935 29.17766559 7.8055205 33 9 C33 9.66 33 10.32 33 11 C37.455 11.99 37.455 11.99 42 13 C42 13.66 42 14.32 42 15 C43.051875 15.12375 44.10375 15.2475 45.1875 15.375 C48.45958771 15.91140782 51.00536076 16.63880035 54 18 C54 18.66 54 19.32 54 20 C56.31 20.66 58.62 21.32 61 22 C61 22.66 61 23.32 61 24 C61.60328125 24.09796875 62.2065625 24.1959375 62.828125 24.296875 C67.71126584 25.2104949 70.86731881 25.86486083 74 30 C76.5099972 33.76499581 76.61476744 35.54293606 76 40 C73.375 43 73.375 43 70 45 C66.625 44.8125 66.625 44.8125 64 44 C64 43.34 64 42.68 64 42 C63.278125 41.87625 62.55625 41.7525 61.8125 41.625 C59.04278106 41.0095069 56.6029646 40.11555626 54 39 C54 38.34 54 37.68 54 37 C51.03 36.01 51.03 36.01 48 35 C48 34.34 48 33.68 48 33 C46.96875 32.87625 45.9375 32.7525 44.875 32.625 C41.37883154 32.06110186 38.31602373 31.21317941 35 30 C35 29.34 35 28.68 35 28 C30.545 27.01 30.545 27.01 26 26 C26 25.34 26 24.68 26 24 C24.2984375 23.814375 24.2984375 23.814375 22.5625 23.625 C17.96662215 23.05770917 13.50098751 22.07315212 9 21 C9 20.34 9 19.68 9 19 C7.55947266 19.04640625 7.55947266 19.04640625 6.08984375 19.09375 C1.48896781 19.09375 -2.91984128 18.3081549 -7.4375 17.5 C-8.67790039 17.28537109 -8.67790039 17.28537109 -9.94335938 17.06640625 C-11.96315101 16.71615337 -13.98171042 16.35880704 -16 16 C-16 15.34 -16 14.68 -16 14 C-16.70743851 14.00444122 -17.41487701 14.00888245 -18.14375305 14.01345825 C-24.80921379 14.0535248 -31.47464095 14.08397919 -38.14019489 14.10362434 C-41.56706693 14.11406363 -44.9938395 14.12822532 -48.4206543 14.15087891 C-52.35985119 14.17675686 -56.29900774 14.18647162 -60.23828125 14.1953125 C-61.46960281 14.20563507 -62.70092438 14.21595764 -63.96955872 14.22659302 C-65.11051498 14.22674408 -66.25147125 14.22689514 -67.42700195 14.22705078 C-68.432939 14.231492 -69.43887604 14.23593323 -70.47529602 14.24050903 C-73 14 -73 14 -76 12 C-76 11.01 -76 10.02 -76 9 C-76.66 9 -77.32 9 -78 9 C-78 7.02 -78 5.04 -78 3 C-77.34 3 -76.68 3 -76 3 C-75.87625 2.360625 -75.7525 1.72125 -75.625 1.0625 C-75.41875 0.381875 -75.2125 -0.29875 -75 -1 C-71.92140399 -2.539298 -68.63675826 -2.3872669 -65.25 -2.5625 C-64.45650146 -2.6042334 -63.66300293 -2.6459668 -62.84545898 -2.68896484 C-41.89472677 -3.68304432 -20.7190344 -3.48133857 0 0 Z " fill="#D58717" transform="translate(300,40)"/>
<path d="M0 0 C1.051875 -0.00386719 1.051875 -0.00386719 2.125 -0.0078125 C4 0.125 4 0.125 6 1.125 C6.625 3.6875 6.625 3.6875 7 6.125 C7.66 6.125 8.32 6.125 9 6.125 C9.50559908 7.56054025 10.0042749 8.9985202 10.5 10.4375 C10.7784375 11.23800781 11.056875 12.03851563 11.34375 12.86328125 C12 15.125 12 15.125 12 18.125 C12.66 18.125 13.32 18.125 14 18.125 C14.66 20.435 15.32 22.745 16 25.125 C16.66 25.125 17.32 25.125 18 25.125 C18.4125 26.053125 18.825 26.98125 19.25 27.9375 C20.97242637 31.0747766 22.19922655 32.09685371 25 34.125 C25 35.115 25 36.105 25 37.125 C25.556875 37.33125 26.11375 37.5375 26.6875 37.75 C29 39.125 29 39.125 31.4375 42.0625 C33.85430235 44.95087354 35.79164946 46.29165684 39 48.125 C39 48.785 39 49.445 39 50.125 C40.65 50.785 42.3 51.445 44 52.125 C44 52.785 44 53.445 44 54.125 C44.5775 54.2075 45.155 54.29 45.75 54.375 C48.80545009 55.39348336 50.08676027 56.52846036 52 59.125 C52.45407275 63.36301231 52.42694943 66.56041803 50 70.125 C47.9765625 70.8046875 47.9765625 70.8046875 45.625 71 C44.46871094 71.11988281 44.46871094 71.11988281 43.2890625 71.2421875 C40.67890141 71.10856151 39.19257578 70.525544 37 69.125 C36.67 68.465 36.34 67.805 36 67.125 C35.071875 66.6609375 35.071875 66.6609375 34.125 66.1875 C31.91524819 65.0826241 30.69458365 63.8932612 29 62.125 C28.01 61.465 27.02 60.805 26 60.125 C26 59.465 26 58.805 26 58.125 C25.443125 57.898125 24.88625 57.67125 24.3125 57.4375 C21.33840412 55.74949964 19.27991135 53.65823483 17 51.125 C17 50.465 17 49.805 17 49.125 C16.360625 48.8775 15.72125 48.63 15.0625 48.375 C13 47.125 13 47.125 12.4375 45.0625 C12.293125 44.423125 12.14875 43.78375 12 43.125 C10.515 42.63 10.515 42.63 9 42.125 C8.66666667 40.79166667 8.33333333 39.45833333 8 38.125 C7.01 37.795 6.02 37.465 5 37.125 C3.35179805 34.52257586 3 33.26251221 3 30.125 C2.34 30.125 1.68 30.125 1 30.125 C0.34 28.145 -0.32 26.165 -1 24.125 C-1.66 24.125 -2.32 24.125 -3 24.125 C-3.50757862 22.71103098 -4.00574925 21.29368271 -4.5 19.875 C-4.7784375 19.08609375 -5.056875 18.2971875 -5.34375 17.484375 C-6 15.125 -6 15.125 -6 11.125 C-6.66 11.125 -7.32 11.125 -8 11.125 C-8 8.815 -8 6.505 -8 4.125 C-7.34 4.125 -6.68 4.125 -6 4.125 C-6 3.135 -6 2.145 -6 1.125 C-3.75487738 0.00243869 -2.48543351 -0.00913762 0 0 Z " fill="#D68716" transform="translate(148,288.875)"/>
<path d="M0 0 C0.66 0 1.32 0 2 0 C2 0.99 2 1.98 2 3 C2.66 3 3.32 3 4 3 C4.66 9.27 5.32 15.54 6 22 C4.35 22.99 2.7 23.98 1 25 C0.31887392 27.38328856 0.31887392 27.38328856 0.50390625 30.078125 C0.50197266 31.07457031 0.50003906 32.07101562 0.49804688 33.09765625 C0.54069801 35.18368439 0.58750984 37.269632 0.63867188 39.35546875 C0.61854798 45.6099752 0.07146422 49.17069365 -4.41430664 53.68652344 C-7.08898754 55.90204049 -8.45666064 57 -12 57 C-12.2475 57.5775 -12.495 58.155 -12.75 58.75 C-14.22820473 61.41076851 -15.58314039 63.13556544 -18 65 C-20.625 65 -20.625 65 -23 64 C-24.125 62.125 -24.125 62.125 -25 60 C-25.495 59.525625 -25.99 59.05125 -26.5 58.5625 C-28.39903312 56.5843405 -29.09899031 54.56441218 -30 52 C-30.66 52 -31.32 52 -32 52 C-32 51.01 -32 50.02 -32 49 C-31.34 49 -30.68 49 -30 49 C-30 48.34 -30 47.68 -30 47 C-27.525 46.505 -27.525 46.505 -25 46 C-25.02618408 45.3294458 -25.05236816 44.6588916 -25.0793457 43.96801758 C-25.18357238 40.91641872 -25.24840623 37.86519458 -25.3125 34.8125 C-25.3753418 33.22985352 -25.3753418 33.22985352 -25.43945312 31.61523438 C-25.56339452 23.75735001 -25.56339452 23.75735001 -22.6171875 19.796875 C-20.1951728 18.13399923 -18.76060767 17.66635358 -16 17 C-15.30062468 15.68352881 -14.63270867 14.34977849 -14 13 C-13.01 12.67 -12.02 12.34 -11 12 C-10.67 11.01 -10.34 10.02 -10 9 C-8.67452141 8.31784993 -7.34013497 7.65288627 -6 7 C-4.33541491 5.29242177 -4.33541491 5.29242177 -2.875 3.375 C-1.3671875 1.4609375 -1.3671875 1.4609375 0 0 Z " fill="#D68615" transform="translate(414,345)"/>
<path d="M0 0 C0 5.61 0 11.22 0 17 C-26.07 17 -52.14 17 -79 17 C-79 17.66 -79 18.32 -79 19 C-80.32 19 -81.64 19 -83 19 C-83 18.34 -83 17.68 -83 17 C-85.31 17 -87.62 17 -90 17 C-89.67 16.34 -89.34 15.68 -89 15 C-88.34 15 -87.68 15 -87 15 C-86.34 13.02 -85.68 11.04 -85 9 C-84.34 9 -83.68 9 -83 9 C-83 8.34 -83 7.68 -83 7 C-82.45098526 6.95210831 -81.90197052 6.90421661 -81.33631897 6.85487366 C-75.64242829 6.35729846 -69.94911576 5.85347241 -64.25610352 5.34594727 C-62.12896792 5.15715402 -60.0016883 4.96997649 -57.87426758 4.78442383 C-54.82334057 4.51804487 -51.77297203 4.24593428 -48.72265625 3.97265625 C-47.76537125 3.89032242 -46.80808624 3.80798859 -45.8217926 3.72315979 C-44.50053627 3.60314857 -44.50053627 3.60314857 -43.15258789 3.48071289 C-41.9834359 3.37745445 -41.9834359 3.37745445 -40.79066467 3.27210999 C-38.98042742 3.17804364 -38.98042742 3.17804364 -38 2 C-34.856963 1.47283958 -31.67201938 1.23507522 -28.5 0.9375 C-27.56196533 0.84807129 -26.62393066 0.75864258 -25.6574707 0.66650391 C-17.0651868 -0.09618931 -8.62283398 -0.14996233 0 0 Z " fill="#D58A1E" transform="translate(239,74)"/>
<path d="M0 0 C17.82 0 35.64 0 54 0 C54 0.66 54 1.32 54 2 C54.99 2.33 55.98 2.66 57 3 C57 3.66 57 4.32 57 5 C57.66 5 58.32 5 59 5 C59 7.64 59 10.28 59 13 C58.34 13 57.68 13 57 13 C57 13.66 57 14.32 57 15 C56.34 15 55.68 15 55 15 C55 15.66 55 16.32 55 17 C37.18 17 19.36 17 1 17 C1 16.34 1 15.68 1 15 C0.195625 14.7525 -0.60875 14.505 -1.4375 14.25 C-4 13 -4 13 -4.875 11.25 C-5.03427736 8.38300756 -4.57377237 5.80510936 -4 3 C-2.68 2.67 -1.36 2.34 0 2 C0 1.34 0 0.68 0 0 Z " fill="#D68616" transform="translate(272,76)"/>
<path d="M0 0 C16.83 0 33.66 0 51 0 C50.67 1.32 50.34 2.64 50 4 C47.4375 5.25 47.4375 5.25 45 6 C45 6.66 45 7.32 45 8 C41.40041467 10.39972355 38.78594141 10.28988204 34.62890625 10.265625 C33.55079933 10.26849518 33.55079933 10.26849518 32.45091248 10.27142334 C30.93203379 10.27278317 29.4131434 10.2691008 27.89428711 10.26074219 C25.57443989 10.25005501 23.25536978 10.26063576 20.93554688 10.2734375 C19.45833163 10.27211556 17.98111687 10.26955246 16.50390625 10.265625 C15.81212784 10.26967346 15.12034943 10.27372192 14.40760803 10.27789307 C8.85022615 10.22405022 6.35396085 9.20010166 2.25 5.5625 C0 3 0 3 0 0 Z " fill="#D68614" transform="translate(126,245)"/>
<path d="M0 0 C2 3 2 3 2 6 C2.66 6 3.32 6 4 6 C4 7.98 4 9.96 4 12 C3.34 12 2.68 12 2 12 C1.34 13.65 0.68 15.3 0 17 C-1.43640171 17.19573608 -2.87419504 17.38127816 -4.3125 17.5625 C-5.11300781 17.66691406 -5.91351563 17.77132812 -6.73828125 17.87890625 C-9 18 -9 18 -12 17 C-14.72914694 13.88097493 -15.2384473 11.45798634 -15 7.4375 C-14.48583503 4.22932484 -14.02678449 3.03515464 -12 0.375 C-7.91757098 -1.4961133 -4.27264151 -1.40182934 0 0 Z " fill="#D68616" transform="translate(404,145)"/>
<path d="M0 0 C2.97 0 5.94 0 9 0 C9 0.66 9 1.32 9 2 C9.639375 2.12375 10.27875 2.2475 10.9375 2.375 C11.9584375 2.684375 11.9584375 2.684375 13 3 C14.12256131 5.24512262 14.13413762 6.51456649 14.125 9 C14.12886719 10.051875 14.12886719 10.051875 14.1328125 11.125 C14 13 14 13 13 15 C12.34 15 11.68 15 11 15 C10.67 15.99 10.34 16.98 10 18 C0.97748344 18.61986755 0.97748344 18.61986755 -2.5625 16.375 C-4.85343054 12.58998433 -5.22364129 9.46964277 -4.5625 5.125 C-4.376875 4.42375 -4.19125 3.7225 -4 3 C-2.68 2.67 -1.36 2.34 0 2 C0 1.34 0 0.68 0 0 Z " fill="#D68819" transform="translate(350,437)"/>
<path d="M0 0 C1.29550781 -0.03867187 1.29550781 -0.03867187 2.6171875 -0.078125 C5.66953307 0.32124732 6.99043382 1.04199691 9.125 3.25 C9.5859375 5.37109375 9.5859375 5.37109375 9.5 7.6875 C9.48066406 8.83025391 9.48066406 8.83025391 9.4609375 9.99609375 C9.08921865 12.49006788 8.50627181 14.14101117 7.125 16.25 C4.29783905 17.19238698 2.49323877 17.38465647 -0.4375 17.375 C-1.22253906 17.37757813 -2.00757813 17.38015625 -2.81640625 17.3828125 C-4.875 17.25 -4.875 17.25 -6.875 16.25 C-7.5 13.6875 -7.5 13.6875 -7.875 11.25 C-8.535 11.25 -9.195 11.25 -9.875 11.25 C-9.875 9.6 -9.875 7.95 -9.875 6.25 C-9.215 6.25 -8.555 6.25 -7.875 6.25 C-7.75125 5.445625 -7.6275 4.64125 -7.5 3.8125 C-7.29375 2.966875 -7.0875 2.12125 -6.875 1.25 C-4.43545342 0.03022671 -2.72194151 0.04846187 0 0 Z " fill="#D6891C" transform="translate(428.875,287.75)"/>
<path d="M0 0 C6.625 -0.125 6.625 -0.125 10 1 C12.01127242 3.99679591 12.27147849 6.50244025 12.25 10.0625 C12.25515625 10.91972656 12.2603125 11.77695313 12.265625 12.66015625 C12 15 12 15 10 18 C6.52674819 19.1577506 3.63932552 19.06866652 0 19 C-0.33 18.01 -0.66 17.02 -1 16 C-1.99 16 -2.98 16 -4 16 C-5.20272819 13.59454362 -5.10071472 12.05003047 -5.0625 9.375 C-5.05347656 8.55773437 -5.04445313 7.74046875 -5.03515625 6.8984375 C-5.02355469 6.27195313 -5.01195313 5.64546875 -5 5 C-4.360625 4.731875 -3.72125 4.46375 -3.0625 4.1875 C-0.66868314 3.11332248 -0.66868314 3.11332248 0 0 Z " fill="#D68615" transform="translate(79,235)"/>
<path d="M0 0 C0 0.66 0 1.32 0 2 C1.32 2.33 2.64 2.66 4 3 C4 6.3 4 9.6 4 13 C3.34 13 2.68 13 2 13 C1.67 14.32 1.34 15.64 1 17 C-6.30627306 18.6398524 -6.30627306 18.6398524 -9.93359375 17.26953125 C-12.40276084 15.5346009 -13.8286258 13.74793546 -14.50390625 10.80078125 C-14.69126652 7.14423396 -14.36477543 4.67980876 -12.625 1.4375 C-8.55710116 -0.79015889 -4.53831648 -0.31179274 0 0 Z " fill="#D68819" transform="translate(217,318)"/>
<path d="M0 0 C0.78503906 0.06703125 1.57007813 0.1340625 2.37890625 0.203125 C4.4375 0.75 4.4375 0.75 6.4375 3.75 C6.703125 6.34375 6.703125 6.34375 6.6875 9.25 C6.69265625 10.2090625 6.6978125 11.168125 6.703125 12.15625 C6.4375 14.75 6.4375 14.75 4.4375 17.75 C1.6875 18.1484375 1.6875 18.1484375 -1.5625 18.125 C-3.17125 18.13660156 -3.17125 18.13660156 -4.8125 18.1484375 C-5.72 18.01695312 -6.6275 17.88546875 -7.5625 17.75 C-9.94848167 14.17102749 -10.34829503 12.03409945 -10.5625 7.75 C-9.87625704 5.05822529 -8.946656 3.22170715 -7.5625 0.75 C-4.56887667 -0.24787444 -3.07153629 -0.30361149 0 0 Z " fill="#D68717" transform="translate(184.5625,290.25)"/>
<path d="M0 0 C0.66 0 1.32 0 2 0 C2 0.66 2 1.32 2 2 C2.94875 2.103125 3.8975 2.20625 4.875 2.3125 C8 3 8 3 10 6 C10.53222453 14.38253638 10.53222453 14.38253638 8 18 C5.9765625 18.64453125 5.9765625 18.64453125 3.625 18.8125 C2.85414063 18.88082031 2.08328125 18.94914062 1.2890625 19.01953125 C-1.08160295 18.99930373 -2.8052613 18.91058308 -5 18 C-7.094758 15.04347446 -7.27125719 12.43557926 -7.25 8.875 C-7.25773437 7.57175781 -7.25773437 7.57175781 -7.265625 6.2421875 C-7 4 -7 4 -5 2 C-2.375 1.875 -2.375 1.875 0 2 C0 1.34 0 0.68 0 0 Z " fill="#D68B1F" transform="translate(414,177)"/>
<path d="M0 0 C1.80768514 4.29325221 1.43414062 7.91752791 0.125 12.3125 C-2.91428376 15.26239306 -5.42586869 14.8932399 -9.52734375 14.84375 C-12.46676696 14.28651337 -13.87151539 13.46530551 -16 11.375 C-17.07204717 6.9438717 -17.51805402 4.65650204 -15.8125 0.4375 C-14 -1.625 -14 -1.625 -12.3125 -2.5 C-7.8619384 -2.7405709 -3.57089023 -2.90134831 0 0 Z " fill="#D68B21" transform="translate(383,113.625)"/>
</svg>
